<svg width="784" height="368" fill="none" xmlns="http://www.w3.org/2000/svg"><path fill="#2C2C2C" d="M0 0h784v368H0z"/><path fill-rule="evenodd" clip-rule="evenodd" d="M86 53H58v2h28v-2zM58 63h28v2H58v-2zm0 10h28v2H58v-2zm488.919 161.638l5.303-5.303 1.414 1.414-5.303 5.303a6.5 6.5 0 01-9.193-9.192l5.303-5.303 1.415 1.414-5.303 5.303a4.5 4.5 0 006.364 6.364zm12.374-9.546l-1.414-1.414 5.303-5.304a4.5 4.5 0 00-6.364-6.364l-5.303 5.304-1.415-1.414 5.304-5.304a6.5 6.5 0 019.192 9.193l-5.303 5.303zm-2.416-5.245l-1.532-1.532-8.486 8.486 1.533 1.532 8.485-8.486zm-332.752-5.972l1.414 1.414 5.047 5.047L232 221.75l1.414-1.414 5.047-5.047 1.414-1.414-1.414-1.414-5.047-5.047L232 206l-1.414 1.414-5.047 5.047-1.414 1.414zm12.922 0L232 218.922l-5.047-5.047 5.047-5.047 5.047 5.047zm-12.922 20.25l1.414 1.414 5.047 5.047L232 242l1.414-1.414 5.047-5.047 1.414-1.414-1.414-1.414-5.047-5.047L232 226.25l-1.414 1.414-5.047 5.047-1.414 1.414zm12.922 0L232 239.172l-5.047-5.047 5.047-5.047 5.047 5.047zm-21.633-8.711L214 224l1.414-1.414 5.047-5.047 1.414-1.414 1.414 1.414 5.047 5.047L229.75 224l-1.414 1.414-5.047 5.047-1.414 1.414-1.414-1.414-5.047-5.047zm6.461 3.633l5.047-5.047-5.047-5.047-5.047 5.047 5.047 5.047zM234.25 224l1.414 1.414 5.047 5.047 1.414 1.414 1.414-1.414 5.047-5.047L250 224l-1.414-1.414-5.047-5.047-1.414-1.414-1.414 1.414-5.047 5.047L234.25 224zm12.922 0l-5.047 5.047-5.047-5.047 5.047-5.047 5.047 5.047zm-31.879 79.308l-.707.708.707.707 16 16 .707.707.707-.707 8-8 .707-.707-1.414-1.415-.707.707-7.293 7.293-14.586-14.585L232 289.43l15.293 15.293.707.707 1.414-1.414-.707-.708-16-16-.707-.707-.707.707-16 16zm15.121-.292H235a12 12 0 018.485 20.485l-1.414-1.414a9.996 9.996 0 00-1.515-15.386 10 10 0 00-5.556-1.685h-4.586l3.293 3.292-1.414 1.415-5-5-.707-.707.707-.708 5-5 1.414 1.415-3.293 3.293z" fill="white"/><path d="M311 142.594V159h-16l30-30 4 4-18 18" stroke="white" stroke-width="2"/><path fill-rule="evenodd" clip-rule="evenodd" d="M456 216h6v18h18v6h2v-6h6v-2h-6v-16.586l5.707-5.707-1.414-1.414-5.707 5.707H464v-6h-2v6h-6v2zm22.586 0H464v14.586L478.586 216zm-13.172 16H480v-14.586L465.414 232zm154.44-160.947l-.475-.985A13.941 13.941 0 01618 64c0-7.732 6.268-14 14-14s14 6.268 14 14-6.268 14-14 14c-2.209 0-4.294-.51-6.147-1.418l-.536-.262-.592.074-8.837 1.105 3.393-5.514.573-.932zm-6.51 6.764L612 80l2.544-.318 10.429-1.304A15.935 15.935 0 00632 80c8.837 0 16-7.163 16-16s-7.163-16-16-16-16 7.163-16 16c0 2.485.567 4.838 1.578 6.936l-4.234 6.88zM152 288.004v17.586l5.293-5.293 1.414 1.414-7 7-.707.707-.707-.707-7-7 1.414-1.414L150 305.59v-17.586h2zM142 318h18v2h-18v-2zm24-6h-30v2h30v-2zM565.791 72c0 5.523-4.478 10-10 10h-2a9.979 9.979 0 01-7.716-3.638 3.555 3.555 0 01-.214-.186l-10.01-9.412a2.736 2.736 0 01-.236-3.711 2.535 2.535 0 013.481-.432l4.695 3.469V52a2 2 0 114 0v10h2V48a2 2 0 114 0v14h2V50a2 2 0 114 0v12h1.999v-6l.001-.045a1.999 1.999 0 013.999.045l.001 16zm1.999-16l.001 16c0 6.627-5.373 12-12 12h-2c-3.66 0-6.937-1.64-9.135-4.218a5.156 5.156 0 01-.165-.15l-10.01-9.411a4.736 4.736 0 01-.408-6.442 4.534 4.534 0 016.211-.766l1.507 1.113V52a4 4 0 016-3.465V48a4 4 0 017.775-1.325A4 4 0 01561.791 50v2.535A4 4 0 01567.79 56z" fill="white"/><path d="M472 49h-12v7m12-7h12v7m-12-7v30m0 0h7m-7 0h-7" stroke="white" stroke-width="2"/><path fill-rule="evenodd" clip-rule="evenodd" d="M394.242 55.281l-.023-.007-13.332-3.8 9.82 9.818a3 3 0 11-1.415 1.414l-9.807-9.807 3.664 12.782.021.073.015.074A9.004 9.004 0 00392 73a8.99 8.99 0 002.822-.45l1.17-.387.871.871 3.693 3.694 4.243-4.243-3.73-3.73-.861-.86.37-1.16c.273-.86.422-1.778.422-2.735a9.004 9.004 0 00-6.734-8.713l-.024-.006zm11.971 15.79l1.414 1.414-1.414 1.415-4.242 4.242-1.415 1.414-1.414-1.414-3.693-3.694A10.992 10.992 0 01392 75c-5.31 0-9.742-3.763-10.773-8.768l-4.578-15.967L376 48l2.266.646 16.502 4.705C399.503 54.578 403 58.881 403 64a10.98 10.98 0 01-.517 3.341l3.73 3.73zM396 290h-18v18h8v-10h10v-8zm2 10v10h-10v8h18v-18h-8zm-12 10h-10v-22h22v10h10v22h-22v-10zm92-22h-22v22h10v10h22v-22h-10v-10zm0 10h-12v12h12v-12zm-180-8h18v18h-18v-18zm-2-2h22v10h10v22h-22v-10h-10v-22zm102-80h-22v22h10v10h22v-22h-10v-10z" fill="white"/><path d="M712 48.758l3.515 10.9.224.695.73-.002 11.454-.025-9.281 6.712-.591.428.227.694 3.563 10.885-9.251-6.753-.59-.43-.59.43-9.251 6.753 3.563-10.885.227-.694-.591-.428-9.281-6.712 11.454.026.73.001.224-.695 3.515-10.9z" stroke="white" stroke-width="2" stroke-linecap="square"/><path fill-rule="evenodd" clip-rule="evenodd" d="M326 224c0 7.732-6.268 14-14 14a13.97 13.97 0 01-4.859-.866C311.287 234.243 314 229.438 314 224c0-5.438-2.713-10.243-6.859-13.134A13.97 13.97 0 01312 210c7.732 0 14 6.268 14 14zm-21-14.392a15.94 15.94 0 017-1.608c8.837 0 16 7.163 16 16s-7.163 16-16 16-16-7.163-16-16c0-6.326 3.672-11.795 9-14.392zM632 128l-18 32h36l-18-32zm0 4.079L617.42 158h29.16L632 132.079z" fill="white"/><circle cx="552" cy="144" r="15" stroke="white" stroke-width="2" stroke-linecap="square"/><path d="M376 160l32-32" stroke="white" stroke-width="2"/><path stroke="white" stroke-width="2" stroke-linecap="square" d="M297 49h30v30h-30z"/><path fill-rule="evenodd" clip-rule="evenodd" d="M240 54v-6h2v6h6v2h-6v16h6v2h-6v6h-2v-6h-16v6h-2v-6h-6v-2h6V56h-6v-2h6v-6h2v6h16zm0 2h-16v16h16V56z" fill="white"/><path d="M216 128h10v2h-8v28h28v-8h2v10h-32v-32z" fill="white"/><path d="M226 150v-12h2v8.586L244.586 130H236v-2h12v12h-2v-8.586L229.414 148H238v2h-12z" fill="white"/><path d="M146.139 77l-5.366-26 22.453 13.573-10.802 2.932L146.139 77z" stroke="white" stroke-width="2" stroke-linecap="square"/><path fill-rule="evenodd" clip-rule="evenodd" d="M466.028 158.981l.594-.118.428-.428 16.486-16.486 1.414-1.414 3.313-3.314a4 4 0 000-5.657l-2.828-2.828a4 4 0 00-5.657 0l-3.313 3.314-1.415 1.414-16.485 16.485-.428.428-.119.594-1.414 7.071-.589 2.942 2.942-.588 7.071-1.415zm10.437-24.103l-16.486 16.485-.989 4.947-.425 2.125 2.124-.425 4.947-.99 16.485-16.485-5.656-5.657zm1.414-1.414l5.657 5.657 3.313-3.314a2 2 0 000-2.828l-2.828-2.829a2 2 0 00-2.829 0l-3.313 3.314zM141 216a3 3 0 100-6 3 3 0 000 6zm1 2v-.1a5.007 5.007 0 003.9-3.9h12.2a5.007 5.007 0 003.9 3.9v12.2a5.007 5.007 0 00-3.9 3.9h-12.2a5.007 5.007 0 00-3.9-3.9V218zm-2 12.1v-12.2a5.002 5.002 0 011-9.9 5.002 5.002 0 014.9 4h12.2a5.002 5.002 0 019.9 1 5.002 5.002 0 01-4 4.9v12.2a5.002 5.002 0 01-1 9.9 5.002 5.002 0 01-4.9-4h-12.2a5.002 5.002 0 01-9.9-1 5.002 5.002 0 014-4.9zm26-17.1a3 3 0 11-6 0 3 3 0 016 0zm-3 25a3 3 0 100-6 3 3 0 000 6zm-19-3a3 3 0 11-6 0 3 3 0 016 0zm482-22.804l1.53.956 16 10 1.357.848-1.357.848-16 10-1.53.956v-23.608zm2 3.608v16.392L641.113 224 628 215.804zM83 136a3 3 0 100-6 3 3 0 000 6zm0 2a5 5 0 10-4.9-6H77c-9.389 0-17 7.611-17 17v1.1a5.002 5.002 0 001 9.9 5 5 0 001-9.9V149c0-8.284 6.716-15 15-15h1.1a5.002 5.002 0 004.9 4zm-22 20a3 3 0 100-6 3 3 0 000 6zm634.736-14.707l-.707.708.707.707 15.557 15.556.707.707.707-.707 15.556-15.556.707-.707-.707-.708-15.556-15.556-.707-.707-.707.707-15.557 15.556zm2.121.708h28.285L712 129.858l-14.143 14.143zM702.414 210l4.293 4.293-1.414 1.414-6-6-.707-.707.707-.707 6-6 1.414 1.414-4.293 4.293H712c8.837 0 16 7.164 16 16 0 8.837-7.163 16-16 16s-16-7.163-16-16h2c0 7.732 6.268 14 14 14s14-6.268 14-14-6.268-14-14-14h-9.586zm7.586 6v10h10v-2h-8v-8h-2zm-63 104h1v-14h-2v12h-28v-28h12v-2h-14v32h31zm-13-18c0-6.448 5.552-12 12-12h2v-2h-2c-7.552 0-14 6.448-14 14v4.586l-3.293-3.293-1.414 1.414 5 5 .707.707.707-.707 5-5-1.414-1.414-3.293 3.293V302zm-81-11h-2v12h-12v2h12v12h2v-12h12v-2h-12v-12zm167 10c0 6.075-4.925 11-11 11s-11-4.925-11-11 4.925-11 11-11 11 4.925 11 11zm-2.542 9.872A12.946 12.946 0 01709 314c-7.18 0-13-5.82-13-13s5.82-13 13-13 13 5.82 13 13c0 3.23-1.178 6.185-3.128 8.458l8.835 8.835-1.414 1.414-8.835-8.835zM66 212.196l1.53.956 16 10 1.357.848-1.357.848-16 10-1.53.956v-23.608zm2 3.608v16.392L81.113 224 68 215.804z" fill="white"/><path fill="#2C2C2C" d="M32 264h80v80H32z"/><path fill-rule="evenodd" clip-rule="evenodd" d="M84 300c0-6.627-5.373-12-12-12s-12 5.373-12 12v8a4 4 0 01-4 4v2h32v-2a4 4 0 01-4-4v-8zm-12-10c5.523 0 10 4.477 10 10v8c0 1.537.578 2.938 1.528 4H60.472A5.978 5.978 0 0062 308v-8c0-5.523 4.477-10 10-10z" fill="white"/><path d="M72 320a4 4 0 01-4-4h-2a6 6 0 1012 0h-2a4 4 0 01-4 4z" fill="white"/><path fill-rule="evenodd" clip-rule="evenodd" d="M166 130h-28v18.586l7.293-7.293.707-.707.707.707L163.414 158H166v-28zm-5.414 28L146 143.414l-8 8V158h22.586zM138 128h-2v32h32v-32h-30zm21 16a3 3 0 100-6 3 3 0 000 6zm0 2a5 5 0 10-.001-10.001A5 5 0 00159 146z" fill="white"/></svg>